<svg width="30" height="30" viewBox="0 -10 50 70" fill="none" xmlns="http://www.w3.org/2000/svg">
<path d="M32.0312 14.0625C32.0312 14.2697 31.9489 14.4684 31.8024 14.6149C31.6559 14.7614 31.4572 14.8438 31.25 14.8438H18.75C18.5428 14.8438 18.3441 14.7614 18.1976 14.6149C18.0511 14.4684 17.9688 14.2697 17.9688 14.0625C17.9688 13.8553 18.0511 13.6566 18.1976 13.5101C18.3441 13.3636 18.5428 13.2812 18.75 13.2812H31.25C31.4572 13.2812 31.6559 13.3636 31.8024 13.5101C31.9489 13.6566 32.0312 13.8553 32.0312 14.0625ZM31.25 19.5312H18.75C18.5428 19.5312 18.3441 19.6136 18.1976 19.7601C18.0511 19.9066 17.9688 20.1053 17.9688 20.3125C17.9688 20.5197 18.0511 20.7184 18.1976 20.8649C18.3441 21.0114 18.5428 21.0938 18.75 21.0938H31.25C31.4572 21.0938 31.6559 21.0114 31.8024 20.8649C31.9489 20.7184 32.0312 20.5197 32.0312 20.3125C32.0312 20.1053 31.9489 19.9066 31.8024 19.7601C31.6559 19.6136 31.4572 19.5312 31.25 19.5312ZM25 33.5938C24.691 33.5938 24.3889 33.6854 24.1319 33.8571C23.875 34.0288 23.6747 34.2728 23.5564 34.5583C23.4382 34.8438 23.4072 35.158 23.4675 35.4611C23.5278 35.7642 23.6766 36.0426 23.8951 36.2611C24.1137 36.4796 24.3921 36.6284 24.6952 36.6887C24.9983 36.749 25.3124 36.7181 25.5979 36.5998C25.8835 36.4815 26.1275 36.2813 26.2992 36.0243C26.4709 35.7674 26.5625 35.4653 26.5625 35.1562C26.562 34.742 26.3972 34.3449 26.1043 34.052C25.8114 33.7591 25.4142 33.5943 25 33.5938ZM39.8438 7.8125V42.1875C39.8431 42.8089 39.5959 43.4046 39.1565 43.844C38.7171 44.2834 38.1214 44.5306 37.5 44.5312H12.5C11.8786 44.5306 11.2829 44.2834 10.8435 43.844C10.4041 43.4046 10.1569 42.8089 10.1562 42.1875V7.8125C10.1569 7.19111 10.4041 6.59535 10.8435 6.15596C11.2829 5.71657 11.8786 5.46942 12.5 5.46875H37.5C38.1214 5.46942 38.7171 5.71657 39.1565 6.15596C39.5959 6.59535 39.8431 7.19111 39.8438 7.8125V7.8125ZM38.2812 7.8125C38.281 7.60536 38.1987 7.40677 38.0522 7.2603C37.9057 7.11383 37.7071 7.03146 37.5 7.03125H12.5C12.2929 7.03146 12.0943 7.11383 11.9478 7.2603C11.8013 7.40677 11.719 7.60536 11.7188 7.8125V42.1875C11.719 42.3946 11.8013 42.5932 11.9478 42.7397C12.0943 42.8862 12.2929 42.9685 12.5 42.9688H37.5C37.7071 42.9685 37.9057 42.8862 38.0522 42.7397C38.1987 42.5932 38.281 42.3946 38.2812 42.1875V7.8125Z" fill="white"/>
</svg>
