<svg width="40" height="40" viewBox="0 0 40 40" fill="none" xmlns="http://www.w3.org/2000/svg">
<path d="M20 3.33332C29.205 3.33332 36.6667 10.795 36.6667 20C36.6667 29.205 29.205 36.6667 20 36.6667C10.795 36.6667 3.33333 29.205 3.33333 20H6.66666C6.66691 23.1354 7.7721 26.1704 9.78804 28.5718C11.804 30.9732 14.6017 32.5873 17.6897 33.1306C20.7777 33.6739 23.9583 33.1115 26.6728 31.5424C29.3873 29.9732 31.462 27.4977 32.5324 24.5506C33.6027 21.6036 33.6002 18.3736 32.5254 15.4282C31.4506 12.4828 29.3721 10.0104 26.6552 8.44534C23.9383 6.88033 20.7568 6.32284 17.6697 6.87082C14.5826 7.4188 11.7873 9.03719 9.77499 11.4417L13.3333 15H3.33333V4.99999L7.41166 9.07665C8.9748 7.27196 10.9081 5.82493 13.0803 4.83391C15.2524 3.84288 17.6125 3.33109 20 3.33332V3.33332ZM21.6667 11.6667V19.3083L27.0717 24.7133L24.7133 27.0717L18.3333 20.6883V11.6667H21.6667Z" fill="current"/>
</svg>
