<svg width="85" height="75" viewBox="0 0 85 75" fill="none" xmlns="http://www.w3.org/2000/svg">
<path d="M42.5 4.6875C35.145 4.6875 27.9552 6.61192 21.8397 10.2174C15.7243 13.8229 10.9579 18.9475 8.14323 24.9432C5.3286 30.9389 4.59216 37.5364 6.02705 43.9014C7.46194 50.2664 11.0037 56.113 16.2045 60.7019C21.4052 65.2908 28.0314 68.4159 35.2451 69.682C42.4588 70.9481 49.9359 70.2983 56.731 67.8148C63.5262 65.3313 69.3341 61.1256 73.4203 55.7296C77.5065 50.3337 79.6875 43.9897 79.6875 37.5C79.6875 28.7976 75.7695 20.4516 68.7955 14.2981C61.8215 8.14452 52.3627 4.6875 42.5 4.6875V4.6875ZM37.1875 51.5625H31.875V23.4375H37.1875V51.5625ZM53.125 51.5625H47.8125V23.4375H53.125V51.5625Z" fill="white"/>
</svg>
