<svg width="72" height="68" viewBox="0 0 72 68" fill="none" xmlns="http://www.w3.org/2000/svg">
<path d="M72 34C72 43.0174 68.2072 51.6654 61.4558 58.0416C54.7045 64.4179 45.5478 68 36 68C26.4522 68 17.2955 64.4179 10.5442 58.0416C3.79285 51.6654 0 43.0174 0 34C0 24.9826 3.79285 16.3346 10.5442 9.95837C17.2955 3.58213 26.4522 0 36 0C45.5478 0 54.7045 3.58213 61.4558 9.95837C68.2072 16.3346 72 24.9826 72 34V34ZM30.555 21.6452C30.2186 21.419 29.8227 21.2846 29.4107 21.2567C28.9988 21.2289 28.5867 21.3086 28.2195 21.4873C27.8524 21.6659 27.5444 21.9365 27.3293 22.2695C27.1142 22.6025 27.0003 22.9849 27 23.375V44.625C27.0003 45.0151 27.1142 45.3975 27.3293 45.7305C27.5444 46.0635 27.8524 46.3341 28.2195 46.5127C28.5867 46.6914 28.9988 46.7711 29.4107 46.7433C29.8227 46.7154 30.2186 46.581 30.555 46.3547L46.305 35.7297C46.5967 35.5332 46.8344 35.2737 46.9984 34.9728C47.1625 34.6719 47.2481 34.3384 47.2481 34C47.2481 33.6616 47.1625 33.3281 46.9984 33.0272C46.8344 32.7263 46.5967 32.4668 46.305 32.2702L30.555 21.6452V21.6452Z" fill="white"/>
</svg>
