<svg width="40" height="40" viewBox="0 0 40 40" fill="none" xmlns="http://www.w3.org/2000/svg">
<path d="M20 1C9.51254 1 1 9.51254 1 20C1 30.5102 9.51254 39 20 39C30.5102 39 39 30.4875 39 20C39 9.51254 30.5102 1 20 1ZM28.6941 28.4217C28.3763 28.9893 27.6499 29.1481 27.1051 28.8076C22.6105 26.0836 17.0036 25.4707 10.3751 26.9916C9.73955 27.1051 9.10394 26.7192 8.96774 26.0836C8.92234 25.448 9.30824 24.8124 9.87575 24.6762C17.1398 23.0191 23.405 23.7228 28.399 26.7873C28.9892 27.1278 29.1708 27.8542 28.8076 28.4217H28.6941ZM31.0777 23.2461C30.6237 23.9271 29.7157 24.1541 29.0346 23.7455C23.9271 20.5675 16.141 19.6595 10.1027 21.5209C9.37634 21.7479 8.51374 21.2939 8.28674 20.5448C8.05974 19.7957 8.51374 18.9558 9.33094 18.7288C16.2318 16.6858 24.8124 17.7073 30.6691 21.2258C31.3501 21.6798 31.5771 22.5878 31.1231 23.2688L31.0777 23.2461ZM31.3047 17.8435C25.1756 14.2115 15.0514 13.871 9.19474 15.6416C8.28674 15.9367 7.33333 15.4146 7.03823 14.4612C6.74313 13.5532 7.26523 12.5317 8.21864 12.2366C14.9379 10.1935 26.1063 10.6022 33.1434 14.779C33.9833 15.2784 34.2784 16.368 33.7563 17.2079C33.3023 18.0705 32.1673 18.3429 31.3501 17.8435H31.3047Z" fill="current"/>
</svg>
