<svg width="25" height="15" viewBox="-7 0 50 24" fill="none" xmlns="http://www.w3.org/2000/svg">
<path d="M30 6.46505C30.232 6.46505 30.446 6.52705 30.616 6.6309L30.75 6.72855L30.784 6.75955C31.9459 7.87565 32.6855 9.21971 32.9204 10.6422C33.1554 12.0647 32.8764 13.5098 32.1146 14.8167C31.3528 16.1236 30.138 17.241 28.6055 18.0447C27.0729 18.8484 25.2827 19.3068 23.434 19.3688L23 19.375H11C10.7979 19.375 10.5958 19.3704 10.394 19.3611L13.708 21.9263C13.8733 22.0547 13.9753 22.224 13.9962 22.4047C14.017 22.5855 13.9554 22.7661 13.822 22.9152L13.708 23.0237C13.5423 23.1518 13.3238 23.2309 13.0906 23.247C12.8575 23.2632 12.6244 23.2154 12.432 23.1121L12.292 23.0237L7.292 19.1487C7.12665 19.0203 7.02467 18.851 7.00384 18.6703C6.98301 18.4896 7.04464 18.3089 7.178 18.1598L7.292 18.0513L12.292 14.1763C12.4684 14.039 12.7047 13.9579 12.9544 13.9489C13.2042 13.94 13.4492 14.0038 13.6412 14.1279C13.8332 14.252 13.9582 14.4273 13.9917 14.6193C14.0252 14.8113 13.9646 15.0061 13.822 15.1652L13.708 15.2737L10.434 17.8095L10.714 17.8219L11 17.825H23C24.5107 17.8251 25.9907 17.4937 27.2685 16.8691C28.5463 16.2445 29.5698 15.3522 30.2206 14.2956C30.8713 13.2389 31.1227 12.0611 30.9456 10.8983C30.7685 9.73556 30.1703 8.63542 29.22 7.7252C29.1026 7.61125 29.029 7.47393 29.0078 7.32903C28.9866 7.18413 29.0185 7.03752 29.1 6.90607C29.1815 6.77461 29.3091 6.66364 29.4683 6.5859C29.6275 6.50816 29.8118 6.46681 30 6.4666V6.46505ZM20.292 0.226304C20.4577 0.0981579 20.6762 0.0191287 20.9093 0.00298423C21.1425 -0.0131602 21.3756 0.0346034 21.568 0.137955L21.708 0.226304L26.708 4.1013L26.822 4.2098C26.9372 4.33923 26.999 4.49275 26.999 4.65C26.999 4.80725 26.9372 4.96078 26.822 5.0902L26.708 5.1987L21.708 9.0737L21.568 9.16205C21.401 9.25137 21.2029 9.29921 21 9.29921C20.7971 9.29921 20.599 9.25137 20.432 9.16205L20.292 9.0737L20.178 8.9652C20.0627 8.83578 20.001 8.68225 20.001 8.525C20.001 8.36775 20.0627 8.21422 20.178 8.0848L20.292 7.9763L23.566 5.4405L23.286 5.4281L23 5.425H11C9.48795 5.42493 8.00684 5.75696 6.72834 6.3826C5.44983 7.00824 4.42628 7.90187 3.77632 8.95992C3.12637 10.018 2.87662 11.1971 3.05603 12.3607C3.23544 13.5242 3.83666 14.6245 4.79 15.5341C4.94939 15.6987 5.01787 15.9057 4.98036 16.1095C4.94286 16.3132 4.80244 16.4971 4.59 16.6207C4.48481 16.6818 4.36511 16.7263 4.23772 16.7516C4.11034 16.777 3.97777 16.7826 3.84758 16.7682C3.58465 16.7391 3.34739 16.6303 3.188 16.4657C2.03406 15.3479 1.30214 14.0042 1.0734 12.5837C0.84467 11.1632 1.12806 9.72139 1.89216 8.4181C2.65625 7.1148 3.87118 6.00099 5.40222 5.20017C6.93327 4.39935 8.72059 3.94282 10.566 3.8812L11 3.875H23C23.204 3.875 23.406 3.87965 23.606 3.88895L20.292 1.3237L20.178 1.2152C20.0446 1.0661 19.983 0.885454 20.0038 0.704749C20.0247 0.524044 20.1266 0.354731 20.292 0.226304V0.226304Z" fill="current"/>
</svg>
