<svg width="40" height="40" viewBox="0 0 40 40" fill="none" xmlns="http://www.w3.org/2000/svg">
<path d="M20.1111 12.2222C15.7778 12.2222 12.3333 15.6667 12.3333 20C12.3333 24.3333 15.7778 27.7778 20.1111 27.7778C24.4444 27.7778 27.8889 24.3333 27.8889 20C27.8889 15.6667 24.4444 12.2222 20.1111 12.2222ZM20.1111 25.5556C17 25.5556 14.5556 23.1111 14.5556 20C14.5556 16.8889 17 14.4445 20.1111 14.4445C23.2222 14.4445 25.6667 16.8889 25.6667 20C25.6667 23.1111 23.2222 25.5556 20.1111 25.5556Z" fill="white"/>
<path d="M36.4445 16.3333L33.3333 15.3333L32.6667 13.6667L34.2222 10.7778C34.5556 10.1111 34.4445 9.22223 33.8889 8.66667L31.2222 6.00001C30.6667 5.44445 29.7778 5.33334 29.1111 5.66667L26.2222 7.22223L24.5556 6.55556L23.5556 3.44445C23.3333 2.77778 22.6667 2.22223 21.8889 2.22223H18.1111C17.3333 2.22223 16.6667 2.77778 16.5556 3.55556L15.5556 6.66667C14.8889 6.77778 14.3333 7.00001 13.7778 7.33334L10.8889 5.77778C10.2222 5.44445 9.33334 5.55556 8.77778 6.11112L6.11112 8.77778C5.55556 9.33334 5.44445 10.2222 5.77778 10.8889L7.22223 13.6667C7.00001 14.2222 6.77778 14.8889 6.55556 15.4445L3.44445 16.4445C2.77778 16.6667 2.22223 17.3333 2.22223 18.1111V21.8889C2.22223 22.6667 2.77778 23.3333 3.55556 23.5556L6.66667 24.5556L7.33334 26.2222L5.77778 29.1111C5.44445 29.7778 5.55556 30.6667 6.11112 31.2222L8.77778 33.8889C9.33334 34.4445 10.2222 34.5556 10.8889 34.2222L13.7778 32.6667L15.4445 33.3333L16.4445 36.5556C16.6667 37.2222 17.3333 37.7778 18.1111 37.7778H21.8889C22.6667 37.7778 23.3333 37.2222 23.5556 36.5556L24.5556 33.3333L26.2222 32.6667L29.1111 34.2222C29.7778 34.5556 30.6667 34.4445 31.2222 33.8889L33.8889 31.2222C34.4445 30.6667 34.5556 29.7778 34.2222 29.1111L32.6667 26.2222L33.3333 24.5556L36.5556 23.5556C37.2222 23.3333 37.7778 22.6667 37.7778 21.8889V18.1111C37.7778 17.3333 37.2222 16.5556 36.4445 16.3333V16.3333ZM35.5556 21.5556L31.5556 22.7778L31.4445 23.3333L30.4445 25.6667L30.1111 26.2222L32.1111 29.8889L29.8889 32.1111L26.2222 30.1111L25.6667 30.4445C24.8889 30.8889 24.1111 31.2222 23.3333 31.4445L22.7778 31.5556L21.5556 35.5556H18.4445L17.2222 31.5556L16.6667 31.4445L14.3333 30.4445L13.7778 30.1111L10.1111 32.1111L7.8889 29.8889L9.8889 26.2222L9.55556 25.6667C9.11112 24.8889 8.77778 24.1111 8.55556 23.3333L8.44445 22.7778L4.44445 21.5556V18.4445L8.22223 17.3333L8.44445 16.7778C8.66667 15.8889 9.00001 15.1111 9.44445 14.3333L9.77779 13.7778L7.8889 10.1111L10.1111 7.8889L13.6667 9.8889L14.2222 9.55556C15 9.11112 15.7778 8.77778 16.6667 8.55556L17.2222 8.33334L18.4445 4.44445H21.5556L22.7778 8.33334L23.3333 8.55556C24.1111 8.77778 24.8889 9.11112 25.6667 9.55556L26.2222 9.8889L29.8889 7.8889L32.1111 10.1111L30.1111 13.7778L30.4445 14.3333C30.8889 15.1111 31.2222 15.8889 31.4445 16.6667L31.5556 17.2222L35.5556 18.4445V21.5556V21.5556Z" fill="current"/>
</svg>
