<svg width="20" height="14" viewBox="-8 0 47 20" fill="none" xmlns="http://www.w3.org/2000/svg">
<path fill-rule="evenodd" clip-rule="evenodd" d="M23.0026 0.236844C22.8278 0.0851952 22.5907 0 22.3435 0C22.0962 0 21.8591 0.0851952 21.6843 0.236844C21.5095 0.388492 21.4113 0.594171 21.4113 0.808634C21.4113 1.0231 21.5095 1.22878 21.6843 1.38042L23.82 3.23148H22.3435C19.9304 3.23148 18.0814 4.17477 16.5193 5.47664C15.2699 6.51685 14.1378 7.84618 13.0244 9.15613C12.7786 9.44526 12.5347 9.73277 12.2889 10.0154C9.51272 13.2265 6.49822 16.1533 0.930977 16.1533C0.684067 16.1533 0.447269 16.2384 0.272677 16.3898C0.0980848 16.5413 0 16.7467 0 16.9609C0 17.1751 0.0980848 17.3805 0.272677 17.532C0.447269 17.6834 0.684067 17.7685 0.930977 17.7685C7.46644 17.7685 10.9688 14.2344 13.7785 10.9846C14.0466 10.6744 14.3054 10.3708 14.5605 10.072C15.6721 8.76686 16.6831 7.57805 17.8096 6.64122C19.1576 5.51864 20.5671 4.8467 22.3435 4.8467H23.82L21.6843 6.69775C21.5095 6.8494 21.4113 7.05508 21.4113 7.26955C21.4113 7.48401 21.5095 7.68969 21.6843 7.84134C21.8591 7.99298 22.0962 8.07818 22.3435 8.07818C22.5907 8.07818 22.8278 7.99298 23.0026 7.84134L26.7265 4.61088C26.8132 4.53586 26.882 4.44674 26.9289 4.34862C26.9758 4.2505 27 4.14532 27 4.03909C27 3.93286 26.9758 3.82767 26.9289 3.72956C26.882 3.63144 26.8132 3.54232 26.7265 3.4673L23.0026 0.236844ZM0.930977 3.23148C6.24313 3.23148 9.55183 5.56709 12.112 8.18538L11.8718 8.46966C11.5735 8.82096 11.2731 9.17093 10.9706 9.51956C8.51472 6.93519 5.63427 4.8467 0.930977 4.8467C0.684067 4.8467 0.447269 4.76162 0.272677 4.61016C0.0980848 4.4587 0 4.25328 0 4.03909C0 3.8249 0.0980848 3.61948 0.272677 3.46802C0.447269 3.31656 0.684067 3.23148 0.930977 3.23148V3.23148ZM16.5193 15.5234C15.5883 14.7497 14.7262 13.8161 13.8865 12.8502C14.2384 12.4657 14.5735 12.0845 14.8956 11.7114L15.0632 11.5176C15.983 12.5901 16.8563 13.5657 17.8096 14.3604C19.1576 15.4814 20.5671 16.1533 22.3435 16.1533H23.82L21.6843 14.3022C21.5095 14.1506 21.4113 13.9449 21.4113 13.7305C21.4113 13.516 21.5095 13.3103 21.6843 13.1587C21.8591 13.007 22.0962 12.9218 22.3435 12.9218C22.5907 12.9218 22.8278 13.007 23.0026 13.1587L26.7265 16.3891C26.8132 16.4641 26.882 16.5533 26.9289 16.6514C26.9758 16.7495 27 16.8547 27 16.9609C27 17.0671 26.9758 17.1723 26.9289 17.2704C26.882 17.3686 26.8132 17.4577 26.7265 17.5327L23.0026 20.7632C22.8278 20.9148 22.5907 21 22.3435 21C22.0962 21 21.8591 20.9148 21.6843 20.7632C21.5095 20.6115 21.4113 20.4058 21.4113 20.1914C21.4113 19.9769 21.5095 19.7712 21.6843 19.6196L23.82 17.7685H22.3435C19.9304 17.7685 18.0814 16.8252 16.5193 15.5234Z" fill="current"/>
</svg>
