<svg width="30" height="30" viewBox="0 -10 50 70" fill="none" xmlns="http://www.w3.org/2000/svg">
<path d="M43.75 26.0417C43.7504 30.0057 42.2441 33.8216 39.5364 36.7166C36.8286 39.6115 33.1218 41.3692 29.1667 41.6334V39.5417C32.5639 39.2746 35.7355 37.7365 38.0488 35.2342C40.3621 32.7319 41.6468 29.4495 41.6468 26.0417C41.6468 22.634 40.3621 19.3516 38.0488 16.8493C35.7355 14.347 32.5639 12.8089 29.1667 12.5417V10.4501C33.1218 10.7143 36.8286 12.472 39.5364 15.3669C42.2441 18.2619 43.7504 22.0778 43.75 26.0417V26.0417ZM37.5 26.0417C37.5004 28.3481 36.6507 30.5737 35.1133 32.2929C33.5759 34.0121 31.4587 35.1042 29.1667 35.3605V33.2605C30.9023 33.0097 32.4894 32.1419 33.6374 30.8161C34.7853 29.4904 35.4171 27.7954 35.4171 26.0417C35.4171 24.2881 34.7853 22.5931 33.6374 21.2674C32.4894 19.9416 30.9023 19.0738 29.1667 18.823V16.723C31.4587 16.9793 33.5759 18.0714 35.1133 19.7906C36.6507 21.5098 37.5004 23.7354 37.5 26.0417V26.0417ZM31.25 26.0417C31.2503 26.6883 31.0501 27.319 30.677 27.8469C30.3039 28.3749 29.7762 28.7742 29.1667 28.9897V23.0938C29.7762 23.3093 30.3039 23.7086 30.677 24.2366C31.0501 24.7645 31.2503 25.3952 31.25 26.0417V26.0417ZM4.16666 18.7501H12.5L20.8333 10.4167H25V41.6668H20.8333L12.5 33.3334H4.16666V18.7501ZM6.24999 31.2501H13.3625L21.6958 39.5834H22.9167V12.5001H21.6958L13.3625 20.8334H6.24999V31.2501Z" fill="white"/>
</svg>
